<svg width="32" height="32" viewBox="0 0 32 32" fill="none" xmlns="http://www.w3.org/2000/svg">
<rect width="32" height="32" rx="6" fill="#D4AF73"/>
<path d="M26.2857 23.2856V12.9999C26 13.3213 25.692 13.6159 25.3616 13.8838C22.9688 15.7231 21.067 17.232 19.6563 18.4106C19.2009 18.7945 18.8304 19.0936 18.5446 19.3079C18.2589 19.5222 17.8728 19.7387 17.3862 19.9574C16.8996 20.1762 16.442 20.2856 16.0134 20.2856H15.9866C15.558 20.2856 15.1004 20.1762 14.6138 19.9574C14.1272 19.7387 13.7411 19.5222 13.4554 19.3079C13.1696 19.0936 12.7991 18.7945 12.3438 18.4106C10.933 17.232 9.03125 15.7231 6.63839 13.8838C6.30804 13.6159 6 13.3213 5.71429 12.9999V23.2856C5.71429 23.4016 5.7567 23.5021 5.84152 23.5869C5.92634 23.6717 6.02679 23.7141 6.14286 23.7141H25.8571C25.9732 23.7141 26.0737 23.6717 26.1585 23.5869C26.2433 23.5021 26.2857 23.4016 26.2857 23.2856ZM26.2857 9.20968V8.88156L26.279 8.70745L26.2388 8.54004L26.1652 8.4195L26.0446 8.31906L25.8571 8.28557H6.14286C6.02679 8.28557 5.92634 8.32799 5.84152 8.41281C5.7567 8.49763 5.71429 8.59807 5.71429 8.71415C5.71429 10.2141 6.37054 11.482 7.68304 12.5177C9.40625 13.8749 11.1964 15.29 13.0536 16.7633C13.1071 16.8079 13.2634 16.9396 13.5223 17.1583C13.7813 17.3771 13.9866 17.5445 14.1384 17.6606C14.2902 17.7766 14.4888 17.9173 14.7344 18.0824C14.9799 18.2476 15.2054 18.3704 15.4107 18.4508C15.6161 18.5311 15.808 18.5713 15.9866 18.5713H16.0134C16.192 18.5713 16.3839 18.5311 16.5893 18.4508C16.7946 18.3704 17.0201 18.2476 17.2656 18.0824C17.5112 17.9173 17.7098 17.7766 17.8616 17.6606C18.0134 17.5445 18.2188 17.3771 18.4777 17.1583C18.7366 16.9396 18.8929 16.8079 18.9464 16.7633C20.8036 15.29 22.5938 13.8749 24.317 12.5177C24.7991 12.1338 25.2478 11.6182 25.6629 10.9708C26.0781 10.3235 26.2857 9.73647 26.2857 9.20968ZM28 8.71415V23.2856C28 23.8749 27.7902 24.3793 27.3705 24.799C26.9509 25.2186 26.4464 25.4284 25.8571 25.4284H6.14286C5.55357 25.4284 5.04911 25.2186 4.62946 24.799C4.20982 24.3793 4 23.8749 4 23.2856V8.71415C4 8.12486 4.20982 7.6204 4.62946 7.20075C5.04911 6.78111 5.55357 6.57129 6.14286 6.57129H25.8571C26.4464 6.57129 26.9509 6.78111 27.3705 7.20075C27.7902 7.6204 28 8.12486 28 8.71415Z" fill="#343434"/>
</svg>
