<svg width="32" height="32" viewBox="0 0 32 32" fill="none" xmlns="http://www.w3.org/2000/svg">
<rect width="32" height="32" rx="6" fill="#D4AF73"/>
<path d="M26.5019 15.9292C26.4024 15.9292 26.307 15.8897 26.2367 15.8194C26.1664 15.7491 26.1269 15.6537 26.1269 15.5542C26.1269 10.2142 21.9081 5.87549 16.7106 5.87549C16.6112 5.87549 16.5158 5.83598 16.4455 5.76565C16.3751 5.69533 16.3356 5.59994 16.3356 5.50049C16.3356 5.40103 16.3751 5.30565 16.4455 5.23532C16.5158 5.165 16.6112 5.12549 16.7106 5.12549C22.3169 5.12549 26.8769 9.80549 26.8769 15.5617C26.8749 15.6599 26.8345 15.7534 26.7644 15.8221C26.6943 15.8908 26.6001 15.9293 26.5019 15.9292Z" fill="#343434"/>
<path d="M22.4144 15.9293C22.3149 15.9293 22.2195 15.8898 22.1492 15.8194C22.0789 15.7491 22.0394 15.6537 22.0394 15.5543C22.0574 14.1206 21.5069 12.7381 20.5083 11.7093C19.5097 10.6804 18.1442 10.089 16.7106 10.0643C16.6112 10.0643 16.5158 10.0248 16.4455 9.95444C16.3751 9.88412 16.3356 9.78873 16.3356 9.68928C16.3356 9.58982 16.3751 9.49444 16.4455 9.42411C16.5158 9.35379 16.6112 9.31428 16.7106 9.31428C18.3421 9.33701 19.898 10.006 21.0369 11.1744C22.1757 12.3428 22.8047 13.9152 22.7856 15.5468C22.7866 15.5963 22.7778 15.6456 22.7596 15.6917C22.7415 15.7378 22.7143 15.7799 22.6798 15.8155C22.6453 15.851 22.604 15.8794 22.5585 15.8989C22.5129 15.9185 22.464 15.9288 22.4144 15.9293ZM24.6269 23.8118C24.1482 24.7699 23.4691 25.614 22.6356 26.2868C22.3382 26.5225 21.9946 26.6934 21.6271 26.7883C21.2596 26.8832 20.8763 26.9002 20.5019 26.838C17.1006 26.2605 13.7519 24.768 10.4106 21.483C7.21939 18.0593 5.72314 14.5643 5.16064 11.073C5.09838 10.6895 5.11377 10.2974 5.20588 9.91989C5.298 9.54241 5.46496 9.18727 5.69689 8.87553C6.34547 8.0178 7.17516 7.31359 8.12689 6.81303C8.2183 6.71704 8.32826 6.64063 8.45009 6.58841C8.57192 6.5362 8.70309 6.50928 8.83564 6.50928C8.96818 6.50928 9.09935 6.5362 9.22118 6.58841C9.34302 6.64063 9.45297 6.71704 9.54439 6.81303L12.8481 10.2443C13.0493 10.4601 13.1611 10.7442 13.1611 11.0393C13.1611 11.3343 13.0493 11.6184 12.8481 11.8343L10.5081 14.373C11.5019 16.5518 15.1731 20.3318 17.2806 21.3518L19.7519 18.9405C19.8532 18.8389 19.9737 18.7583 20.1062 18.7033C20.2388 18.6483 20.3809 18.62 20.5244 18.62C20.6679 18.62 20.81 18.6483 20.9426 18.7033C21.0751 18.7583 21.1955 18.8389 21.2969 18.9405L24.6344 22.3155C24.7327 22.414 24.8105 22.5309 24.8633 22.6596C24.9161 22.7883 24.943 22.9261 24.9423 23.0652C24.9416 23.2043 24.9134 23.3419 24.8592 23.47C24.8051 23.5982 24.7261 23.7143 24.6269 23.8118Z" fill="#343434"/>
</svg>
