<svg width="32" height="32" viewBox="0 0 32 32" fill="none" xmlns="http://www.w3.org/2000/svg">
<rect width="32" height="32" rx="6" fill="#D4AF73"/>
<path d="M16 27.9396L15.5885 27.3441C15.279 26.8956 8 16.3096 8 12.0601C8 7.64906 11.589 4.06006 16 4.06006C20.411 4.06006 24 7.64906 24 12.0601C24 16.3096 16.721 26.8956 16.4115 27.3441L16 27.9396ZM16 5.06006C12.14 5.06006 9 8.20006 9 12.0601C9 15.4536 14.4425 23.8376 16 26.1671C17.5575 23.8376 23 15.4536 23 12.0601C23 8.20006 19.86 5.06006 16 5.06006Z" fill="#343434"/>
<path d="M16 15.5601C14.0705 15.5601 12.5 13.9901 12.5 12.0601C12.5 10.1301 14.0705 8.56006 16 8.56006C17.9295 8.56006 19.5 10.1301 19.5 12.0601C19.5 13.9901 17.9295 15.5601 16 15.5601ZM16 9.56006C14.6215 9.56006 13.5 10.6816 13.5 12.0601C13.5 13.4386 14.6215 14.5601 16 14.5601C17.3785 14.5601 18.5 13.4386 18.5 12.0601C18.5 10.6816 17.3785 9.56006 16 9.56006Z" fill="#343434"/>
</svg>
